<?xml version="1.0" encoding="utf-8"?>
<!-- Generator: Adobe Illustrator 16.0.3, SVG Export Plug-In . SVG Version: 6.00 Build 0)  -->
<!DOCTYPE svg PUBLIC "-//W3C//DTD SVG 1.1//EN" "http://www.w3.org/Graphics/SVG/1.1/DTD/svg11.dtd">
<svg version="1.1" id="Capa_1" xmlns="http://www.w3.org/2000/svg" xmlns:xlink="http://www.w3.org/1999/xlink" x="0px" y="0px"
	 width="30px" height="30px" viewBox="0 0 30 30" enable-background="new 0 0 30 30" xml:space="preserve">
<path fill="#FFFFFF" d="M24.847,0.228H5.151c-2.72,0-4.924,2.204-4.924,4.924v19.695c0,2.721,2.204,4.926,4.924,4.926h19.696
	c2.72,0,4.925-2.205,4.925-4.926V5.152C29.771,2.432,27.566,0.228,24.847,0.228z M27.31,24.847c0,1.359-1.104,2.463-2.463,2.463
	H5.151c-1.36,0-2.463-1.104-2.463-2.463V5.152c0-1.361,1.103-2.463,2.463-2.463h19.696c1.359,0,2.463,1.102,2.463,2.463V24.847z"/>
<path fill="#FFFFFF" d="M15,7.613c-4.08,0-7.387,3.307-7.387,7.386c0,4.08,3.307,7.387,7.387,7.387c4.079,0,7.385-3.307,7.385-7.387
	C22.385,10.92,19.078,7.613,15,7.613z M15,19.923c-2.721,0-4.924-2.203-4.924-4.924c0-2.719,2.204-4.923,4.924-4.923
	c2.719,0,4.923,2.204,4.923,4.923C19.923,17.72,17.719,19.923,15,19.923z"/>
<circle fill="#FFFFFF" cx="23" cy="6.998" r="1.846"/>
</svg>
